<svg xmlns="http://www.w3.org/2000/svg" xmlns:xlink="http://www.w3.org/1999/xlink" width="500" zoomAndPan="magnify" viewBox="0 0 375 374.999991" height="500" preserveAspectRatio="xMidYMid meet" version="1.0"><defs><clipPath id="e4b2ff1e40"><path d="M 6.066406 11.875 L 369 11.875 L 369 362.875 L 6.066406 362.875 Z M 6.066406 11.875 " clip-rule="nonzero"/></clipPath></defs><g clip-path="url(#e4b2ff1e40)"><path fill="#0d0d0d" d="M 368.921875 193.339844 C 368.921875 207.769531 367.222656 222.144531 363.863281 236.058594 C 360.59375 249.585938 355.746094 262.75 349.453125 275.183594 C 343.476562 286.992188 336.582031 297.71875 328.351562 307.773438 C 324.253906 312.78125 316.742188 313.195312 312.121094 308.667969 L 222.4375 220.90625 C 217.738281 216.207031 217.738281 208.5625 222.4375 203.859375 L 237.59375 188.703125 C 242.292969 184.003906 249.941406 184.003906 254.640625 188.703125 L 317.074219 251.140625 C 317.710938 251.773438 318.785156 251.566406 319.144531 250.746094 C 327.066406 232.667969 331.070312 213.390625 331.070312 193.339844 C 331.070312 114.167969 266.667969 49.761719 187.496094 49.761719 C 108.328125 49.761719 43.921875 114.167969 43.921875 193.339844 C 43.921875 214.257812 48.507812 234.992188 57.246094 253.816406 C 57.621094 254.625 58.675781 254.8125 59.300781 254.1875 L 209.855469 103.632812 C 214.554688 98.933594 222.203125 98.933594 226.898438 103.632812 L 242.058594 118.789062 C 246.757812 123.492188 246.757812 131.132812 242.058594 135.835938 L 85.40625 292.484375 C 84.914062 292.980469 84.90625 293.78125 85.398438 294.277344 C 92.957031 301.921875 101.339844 308.699219 110.40625 314.480469 L 110.414062 314.488281 C 110.914062 314.804688 111.570312 314.726562 111.988281 314.308594 L 181.496094 244.800781 C 186.195312 240.101562 193.84375 240.101562 198.542969 244.800781 L 270.265625 316.527344 C 272.566406 318.828125 273.941406 321.925781 273.949219 325.179688 C 273.953125 328.40625 272.703125 331.441406 270.417969 333.722656 L 255.257812 348.878906 C 250.5625 353.578125 242.917969 353.582031 238.214844 348.878906 L 194.609375 305.273438 C 192.082031 302.742188 187.960938 302.742188 185.425781 305.273438 L 141.480469 349.222656 L 131.785156 358.925781 C 128.542969 362.167969 123.636719 363.070312 119.460938 361.183594 C 111.011719 357.371094 97.039062 350.851562 90.050781 346.394531 C 75.554688 337.148438 62.4375 325.894531 51.070312 312.941406 C 42.117188 302.730469 34.304688 291.515625 27.863281 279.617188 C 20.832031 266.636719 15.414062 252.820312 11.75 238.542969 C 7.980469 223.847656 6.070312 208.640625 6.070312 193.339844 C 6.070312 168.851562 10.867188 145.09375 20.335938 122.707031 C 29.472656 101.105469 42.554688 81.703125 59.207031 65.046875 C 75.863281 48.390625 95.265625 35.3125 116.871094 26.175781 C 139.253906 16.707031 163.015625 11.914062 187.496094 11.914062 C 211.980469 11.914062 235.742188 16.707031 258.125 26.175781 C 279.730469 35.3125 299.128906 48.390625 315.789062 65.046875 C 332.441406 81.703125 345.519531 101.105469 354.660156 122.707031 C 364.125 145.09375 368.921875 168.851562 368.921875 193.339844 " fill-opacity="1" fill-rule="nonzero"/></g></svg>